<?xml version="1.0" encoding="UTF-8"?>
<svg id="Layer_1" data-name="Layer 1" xmlns="http://www.w3.org/2000/svg" viewBox="0 0 1200 1200">
  <defs>
    <style>
      .cls-1 {
        fill: #f5ebe0;
      }

      .cls-1, .cls-2, .cls-3 {
        stroke-width: 0px;
      }

      .cls-2 {
        fill: #dd4f73;
      }

      .cls-3 {
        fill: #ffb200;
      }
    </style>
  </defs>
  <g>
    <path class="cls-2" d="M131.85,546.12c1.03,1.72,1.55,3.82,1.57,6.28.04,5.01-1.83,10.38-5.6,16.01-3.78,5.63-7.79,8.72-12.05,9.37-1.55.24-3.01,0-4.36-.71-7.39-3.94-13.84-5.31-19.37-4.34-8.42,1.5-12.34,6.24-11.76,14.21.51,7.18,9.67,12.32,27.55,16.24,10.36,2.17,17.76,6.57,22.18,13.1,4.42,6.53,6.69,16.27,6.79,29.04.18,22.31-7.81,38.07-23.99,46.5-9.29,3.55-19.3,5.23-30.04,5.23-11.28,0-21.59-1.74-30.91-5-11.56-4.1-19.85-10-24.86-17.74,0-8.09.41-13.95,1.22-17.62,2.23-9.48,6.79-14.63,13.68-15.29,2.77-.25,7.72,1.38,14.87,5.12,7.15,3.76,12.32,5.64,15.51,5.42,3.25-.22,6.15-1.84,8.71-4.92.33-1.28.5-2.37.49-3.26-.02-3.49-1.93-6-5.72-7.5-2.37-.96-7.08-1.78-14.11-2.38-9.27-.89-16.64-4.63-22.11-11.06-5.47-6.44-8.2-14.33-8.2-23.98,0-15.39,5.83-29.8,17.45-44.12,11.36-13.8,24.63-23.08,39.86-26.77,11.54-2.8,20.67-2.4,27.37,1.29,4.13,2.3,9.4,7.83,15.82,16.9Z"/>
    <path class="cls-2" d="M147.9,526.42c-.04-4.45,2.83-8.36,8.62-11.77,3.83-2.26,8.18-3.9,13.05-4.89,13.44-2.72,20.22-.09,20.29,7.72.3,3.59-.21,10.48-1.53,20.61-1.51,12.02-2.25,19.96-2.22,23.93.08,8.1,1.91,12.55,5.52,13.39.95-.12,2.34-3.68,4.17-10.74,1.83-7.06,4.61-10.88,8.34-11.39,3.46-.47,6.12.93,7.98,4.24.97,1.87,2.02,5.03,3.15,9.5,1.05,3.61,1.99,5.38,2.8,5.28,3.19-.7,4.72-6.6,4.62-17.71-.06-6.64-.48-14.02-1.23-22.13-.68-6.72-1.35-13.42-2.03-20.12-.52-4.19,1.86-7.73,7.13-10.66,3.58-2.02,7.54-3.41,11.89-4.14,4.89-.82,9.27-.74,13.16.26,5.73,1.51,8.62,4.87,8.67,10.01.52,53.19-3.71,111.57-12.7,173.05-2.16,8.86-7.35,13.26-15.57,13.28-5.03.01-9.23-1.69-12.59-5.06-3.91-3.71-5.83-8.66-5.75-14.89-.99-17.56-3.66-26.73-8.01-27.55-2.91.83-4.75,3.92-5.52,9.25-.52,6.22-1.04,12.43-1.55,18.63.54,6.65-1.08,11.76-4.85,15.27-3.17,3.17-7.47,4.73-12.9,4.75-3.6,0-7.01-.86-10.22-2.59-4.03-1.8-6.5-4.54-7.41-8.23-3.17-13.11-6.61-40.5-10.28-81.64-3.23-36.7-4.89-61.73-5.01-75.67Z"/>
    <path class="cls-2" d="M287.63,506.33c5.35-10.72,18.33-17.69,38.99-20.29,15.27-1.91,28.95.05,41.02,5.99,4.5,7.66,6.78,15.21,6.84,22.57.05,5.91-1.52,10.78-4.7,14.61-.95,1.04-2.34,1.64-4.18,1.79-2.12.17-5.65-.16-10.6-.98-4.96-.81-8.69-1.09-11.21-.86-5.32.49-9.9,2.6-13.76,6.27-4.4,4.2-6.56,9.77-6.5,16.73.06,6.21,1.63,10.32,4.71,12.35,2.82,2.71,9.17,4.07,19.05,4.15,10.91.2,17.46.8,19.65,1.72,3.57,2.86,5.38,8.37,5.45,16.49.05,6.19-1.45,10.66-4.49,13.41-2.24.69-5.17,1.11-8.78,1.29-1.84.09-3.68.18-5.52.27-4.97.06-6.85.06-5.62,0-10.49.55-17.16,4.1-20.03,10.56.95,22.74,17.06,33.19,48.36,31.49,5.33,1.99,8.03,8.69,8.11,20.06.08,11.18-3.26,19.09-10.02,23.66-7.51,4.97-19.66,7.42-36.44,7.44-27.46,0-44.67-8.37-51.62-24.73-5.42-12.77-8.32-38.57-8.7-77.63-.42-43.34,2.92-72.04,10-86.37Z"/>
    <path class="cls-2" d="M406,493.65c5.39-11.12,18.45-17.67,39.19-19.14,15.33-1.07,29.05,1.83,41.14,8.7,4.49,8.24,6.74,16.21,6.77,23.87.02,6.15-1.56,11.15-4.76,14.99-.95,1.04-2.35,1.6-4.2,1.67-2.12.09-5.66-.43-10.63-1.51-4.96-1.08-8.71-1.55-11.24-1.43-5.33.26-9.94,2.25-13.81,5.94-4.42,4.22-6.61,10-6.57,17.35.04,6.56,1.6,10.96,4.69,13.21,2.82,2.96,9.18,4.64,19.08,5.08,10.93.6,17.49,1.47,19.68,2.5,3.56,3.11,5.36,8.91,5.4,17.36.03,6.45-1.49,11.06-4.55,13.85-2.25.65-5.18,1.02-8.79,1.11-1.84.05-3.68.09-5.52.14-4.98-.07-6.86-.12-5.63-.15-10.5.29-17.2,3.84-20.09,10.59.89,24.03,16.98,35.28,48.3,33.94,5.32,2.15,8,9.15,8.04,20.96.04,11.61-3.33,19.8-10.11,24.55-7.53,5.15-19.68,7.72-36.47,7.72-27.46,0-44.65-8.89-51.57-26.42-5.4-13.67-8.25-41.33-8.56-83.13-.33-46.38,3.07-76.91,10.21-91.75Z"/>
    <path class="cls-2" d="M517.03,474.19c11.64-3.55,27.78-5.64,48.43-5.94,18.93-.27,35.83,1.31,50.71,4.6,4.94,3.41,7.39,13.77,7.37,31.07-.02,15.57-2.05,24.92-6.08,28.04-2.67,4.97-6.13,7.45-10.37,7.43-2.12,0-5.2-.96-9.23-2.84-4.04-1.89-6.98-2.82-8.82-2.82-2.12,0-3.66,1.18-4.62,3.53-.55,1.22-.82,4.03-.82,8.4,0,13.34,1.16,33.35,3.46,60.03,2.29,26.68,3.44,46.7,3.44,60.04,0,11.31-.81,17.88-2.44,19.71-5.44,6.32-13.19,9.47-23.24,9.47-9.58,0-15.64-4.06-18.17-12.19-1.5-2.23-2.26-8.38-2.28-18.43-.03-13.1,1.29-32.71,3.97-58.85,2.68-26.14,4.01-45.78,3.99-58.89,0-4.17-.32-6.55-.94-7.15-.96-3.14-2.71-4.69-5.24-4.64-1.92.03-5.11.98-9.59,2.84-4.48,1.86-7.91,2.82-10.3,2.88-3.35.08-6.36-.86-9.03-2.82-4.66-3.42-7.02-13.81-7.08-31.2-.06-17.18,2.23-27.94,6.88-32.26Z"/>
    <path class="cls-2" d="M764.38,492.21c2.46-10.02,9.71-14.56,21.74-13.52,11.76,1.03,19,6.19,21.74,15.28,1.05,5.84,1.54,13.03,1.48,21.58-.07,9.72-1.36,24.05-3.85,43.08-2.49,19.03-3.77,33.37-3.84,42.92-.03,4.39.28,7.81.95,10.27,2.15,13.84,10.4,20.92,24.76,21.36,3.61.12,9.26-.38,16.96-1.45,6.54-1.01,11.69-1.62,15.43-1.85,7.29-.46,10.85,7.88,10.7,24.98-.05,5.64-.75,11.5-2.09,17.6-1.57,7.88-3.75,12.49-6.55,13.8-11.19,5.03-23.96,7.61-38.3,7.59-25.35-.02-43.69-7.07-55.03-21.41-6.06-9.92-8.96-36.43-8.71-79.45.17-28.24,1.7-61.89,4.61-100.79Z"/>
    <path class="cls-2" d="M882.89,499.1c2.58-5.94,8.77-8.25,18.57-6.87,10.55,1.49,17.25,5.93,20.1,13.16,2.19,5.79,3.01,37.24,2.46,94.37-.49,50.61-1.69,79.8-3.6,87.61-1.96,6.07-8.72,9.13-20.28,9.13-10.6,0-16.8-2.84-18.58-8.55-2.97-9.62-4.19-43.79-3.66-102.43.48-52.83,2.14-81.65,4.98-86.42Z"/>
    <path class="cls-2" d="M951.73,520.82c7.34-14.24,23.4-19.11,48.11-14.42,16.04,3.03,30.33,9.23,42.89,18.07,4.46,7.72,6.66,15.62,6.59,23.83-.05,6.12-1.74,10.39-5.08,12.87-.95.66-2.34.85-4.17.57-2.5-.39-6.3-1.5-11.4-3.35-5.1-1.85-8.97-2.98-11.61-3.37-5.55-.83-10.2-.17-13.95,2.02-4.78,2.81-7.19,7.5-7.26,13.98-.05,5.63,1.43,9.65,4.47,12.03,2.75,2.95,9.04,5.29,18.86,7.06,10.97,2.08,17.49,3.71,19.58,4.85,2.49,2.09,3.71,6.12,3.66,12.12-.06,7.14-2.14,11.93-6.23,14.45-2.04.32-4.89.33-8.55.02-1.86-.15-3.73-.31-5.59-.46-5.02-.57-6.88-.81-5.59-.7-10.31-.84-17.02,1.48-20.13,6.99-.16,1.95-.24,3.91-.26,5.87-.04,4.69.86,11.68,2.7,20.9,1.85,9.22,2.75,16.12,2.71,20.78-.03,2.63-.32,5.25-.89,7.87-1.7,7.77-8.61,11.67-20.71,11.65-11.56-.02-19.59-5.49-24.1-16.63-1.93-4.54-4.59-17.1-7.99-37.92-3.78-23.51-5.57-45.41-5.38-65.35.24-24.25,3.34-42.26,9.3-53.74Z"/>
    <path class="cls-2" d="M1072.03,534.62c5.45-7.44,18.38-8.76,38.71-3.8,15.03,3.66,28.41,9.81,40.17,17.92,4.34,6.95,6.51,12.96,6.51,18.2,0,4.21-1.58,7.24-4.74,9.17-.94.5-2.32.57-4.13.21-2.08-.42-5.55-1.57-10.42-3.47-4.87-1.9-8.54-3.1-11.03-3.59-5.24-1.04-9.79-.64-13.64,1.23-4.39,2.14-6.6,6.03-6.63,11.56-.03,4.93,1.47,8.54,4.5,10.78,2.75,2.73,9.02,5.08,18.79,7.13,10.78,2.35,17.24,4.09,19.39,5.19,3.49,2.78,5.24,7.05,5.23,12.87,0,4.43-1.53,7.39-4.57,8.93-2.23.16-5.13.04-8.71-.37-1.82-.21-3.64-.41-5.47-.62-4.93-.7-6.79-.98-5.57-.84-10.4-1.17-17.07.57-20,5.28.64,18.2,16.56,27.65,47.71,28.82,5.28,1.87,7.92,6.75,7.92,14.69,0,7.81-3.39,13.22-10.19,16.4-7.54,3.43-19.72,5.23-36.5,5.2-27.46,0-44.54-6.93-51.22-21.34-5.21-11.14-7.68-33.87-7.41-67.89.3-37.76,4.07-61.81,11.3-71.66Z"/>
  </g>
  <g>
    <path class="cls-1" d="M723.16,597.63c15.36-4.25,19.14-16.65,15.39-25.32-3.76-8.67-15.4-14.38-29-6.08-4.45,2.72-8.51,6.67-11.97,10.79,2.4-4.81,4.41-10.09,5.14-15.26,2.21-15.78-7.66-24.19-17.11-24.19s-19.32,8.41-17.11,24.19c.72,5.16,2.73,10.45,5.14,15.26-3.46-4.12-7.51-8.07-11.97-10.79-13.6-8.3-25.24-2.59-29,6.08-3.76,8.67.03,21.07,15.39,25.32,6.21,1.72,13.37,1.71,19.77,1.07-5.56,2.52-11.32,5.85-15.6,10.1-11.32,11.22-8.56,23.88-1.04,29.61,7.52,5.72,20.47,5.01,28.27-8.88,3.68-6.55,5.38-14.92,6.16-22.05.77,7.13,2.48,15.5,6.16,22.05,7.8,13.89,20.75,14.6,28.27,8.88,7.52-5.72,10.28-18.39-1.04-29.61-4.29-4.25-10.05-7.58-15.6-10.1,6.4.64,13.56.65,19.77-1.07Z"/>
    <circle class="cls-3" cx="685.61" cy="590.24" r="15.55"/>
  </g>
  <path class="cls-1" d="M516.11,474.13c27.69-10.38,93.44-6.92,100.36-1.15,5.67,4.73,6.92,16.15,6.92,24.22s-9.23,12.69-19.61,6.92-3.46,10.38-17.3,9.23-11.54-19.61-21.92-17.3-12.99,19.67-23.07,16.15-9.23-4.61-13.84-13.84-10.38,20.76-15,11.54l-1.55-3.09c-.58-1.15-.55-2.56-.76-3.83-1.15-6.92,1.81-27.36,5.77-28.84Z"/>
  <path class="cls-1" d="M1065.2,552.57s0-11.54,6.92-18.46c4.08-4.08,11.4-8.27,24.22-6.92,21.92,2.31,30.22,4.77,54.22,20.76,4.61,6.92,5.77,10.38,5.77,10.38,0,0-1.15,2.31-8.07,2.31s-4.61-10.38-9.23-8.07-2.31,12.69-9.23,11.54-9.23-12.69-12.69-11.54-5.99,7.03-11.54,5.77-6.92-6.92-13.84-6.92-6.7,19.84-13.84,17.3c-7.14-2.54-5.77-13.84-12.69-16.15Z"/>
</svg>